<?xml version="1.0" encoding="UTF-8"?>
<svg id="Layer_1" xmlns="http://www.w3.org/2000/svg" version="1.1" viewBox="0 0 2065.47 500">
  <!-- Generator: Adobe Illustrator 29.8.1, SVG Export Plug-In . SVG Version: 2.1.1 Build 2)  -->
  <defs>
    <style>
      .st0 {
        fill: none;
        stroke: #00ff40;
        stroke-miterlimit: 10;
        stroke-width: 30px;
      }

      .st1 {
        fill: #004f29;
      }
    </style>
  </defs>
  <g>
    <path class="st1" d="M363.39,293.05s78.11-11.99,79.03-95.86c.52-45.43-36.89-82.24-82.32-82.24H78.21l-35.23,356.24h327.86c52.94,0,89.11-39.15,89.11-98.37,0-73.24-96.57-79.77-96.57-79.77ZM331.96,409.8c-7.08,7.09-16.88,11.48-27.68,11.48h-165.57l18-78.29h147.57c21.62,0,39.15,17.52,39.15,39.15,0,10.8-4.38,20.59-11.46,27.67ZM331.96,231.68c-7.08,7.08-16.88,11.46-27.68,11.46h-165.57l18-78.29h147.57c2.47,0,4.9.23,7.25.69,18.16,3.38,31.9,19.32,31.9,38.46,0,10.82-4.38,20.59-11.46,27.68Z"/>
    <path class="st0" d="M149.85,114.94c0-47.56,38.56-86.12,86.12-86.12s86.12,38.56,86.12,86.12"/>
  </g>
  <path class="st1" d="M767.03,114.95v302.13c0,29.88-24.22,54.1-54.1,54.1h-184.44c-29.88,0-54.1-24.22-54.1-54.1V114.95h92.22v252.23c0,29.88,24.22,54.1,54.1,54.1h0c29.88,0,54.1-24.22,54.1-54.1V114.95h92.22Z"/>
  <path class="st1" d="M1080.1,114.95v93.21l-54.1,47.45c-34.38,30.15-54.1,73.67-54.1,119.4v96.17s-76.23,0-76.23,0v-96.17c0-45.73-19.72-89.25-54.1-119.4l-54.1-47.45v-93.21s38.69,0,38.69,0l80.81,139.96c11.92,20.65,41.73,20.65,53.65,0l80.81-139.96h38.68Z"/>
  <path class="st1" d="M1645.76,114.95h-231.9v356.23h83.25v-168.13h20.17c40.93,0,78.2,23.59,95.71,60.58l50.93,107.55h42.58v-85.31l-89.78-92.81,72.69-75.14c10.96-11.33,17.09-26.47,17.09-42.23h0c0-33.54-27.19-60.74-60.74-60.74ZM1589.34,260.45h-92.23v-108.2h93.04c30.12,0,54.49,24.61,54.1,54.81-.38,29.73-25.17,53.39-54.9,53.39Z"/>
  <path class="st1" d="M1819.83,149.86v67.06c0,33.98,27.55,61.53,61.53,61.53h133.81v131.2c0,33.98-27.55,61.53-61.53,61.53h-231.1v-33.41h195.33v-67.06c0-33.98-27.55-61.53-61.53-61.53h-133.8v-132.7c0-33.98,27.55-61.53,61.53-61.53h231.1v34.91h-195.34Z"/>
  <path class="st1" d="M1189.4,209.19h0c0,29.88,24.22,54.1,54.1,54.1h145.31v59.55h-145.31c-29.88,0-54.1,24.22-54.1,54.1h0c0,29.88,24.22,54.1,54.1,54.1h145.31v40.14h-238.54c-29.88,0-54.1-24.22-54.1-54.1v-248.03c0-29.88,24.22-54.1,54.1-54.1h238.54v40.14h-145.31c-29.88,0-54.1,24.22-54.1,54.1Z"/>
</svg>