<?xml version="1.0" encoding="UTF-8"?>
<svg id="Layer_1" xmlns="http://www.w3.org/2000/svg" version="1.1" viewBox="0 0 500 500">
  <!-- Generator: Adobe Illustrator 29.8.1, SVG Export Plug-In . SVG Version: 2.1.1 Build 2)  -->
  <defs>
    <style>
      .st0 {
        fill: #004f29;
      }
    </style>
  </defs>
  <path class="st0" d="M250,15.47C120.47,15.47,15.47,120.47,15.47,250c0,55.81,19.49,107.07,52.04,147.33,43,53.19,108.77,87.2,182.49,87.2s139.49-34.01,182.49-87.2c32.55-40.26,52.04-91.52,52.04-147.33,0-129.53-105-234.53-234.53-234.53ZM250,91.6c42.14,0,76.3,34.16,76.3,76.29s-34.16,76.3-76.3,76.3-76.3-34.16-76.3-76.3,34.16-76.29,76.3-76.29ZM401.7,401.7c-19.71,19.71-42.66,35.18-68.2,45.98-26.44,11.18-54.53,16.85-83.5,16.85s-57.06-5.67-83.5-16.85c-25.54-10.8-48.49-26.27-68.2-45.98-7.39-7.39-14.17-15.22-20.34-23.48,35.64-57.56,99.36-95.9,172.04-95.9s136.4,38.34,172.04,95.9c-6.17,8.26-12.95,16.09-20.34,23.48Z"/>
  <path class="st0" d="M432.49,397.33c-43,53.19-108.77,87.2-182.49,87.2s-139.49-34.01-182.49-87.2c3.14-6.58,6.64-12.95,10.45-19.11,6.17,8.26,12.95,16.09,20.34,23.48,19.71,19.71,42.66,35.18,68.2,45.98,26.44,11.18,54.53,16.85,83.5,16.85s57.06-5.67,83.5-16.85c25.54-10.8,48.49-26.27,68.2-45.98,7.39-7.39,14.17-15.22,20.34-23.48,3.81,6.16,7.31,12.53,10.45,19.11Z"/>
</svg>